<svg width="31" height="25" viewBox="0 0 31 25" fill="none" xmlns="http://www.w3.org/2000/svg">
<rect width="31" height="25" rx="4" fill="#FFE5E5"/>
<path d="M12.8129 9.956H10.2929C9.62094 11.684 8.02494 12.896 5.68494 13.58L5.19294 12.596C7.73694 11.888 9.14094 10.556 9.35694 8.864H5.75694V7.868H10.6769C10.6769 8.252 10.6409 8.612 10.5809 8.948H12.8129V7.088H14.0489V13.46H12.8129V12.212H10.1849V11.204H12.8129V9.956ZM10.4969 16.904C11.9729 16.904 12.8969 16.484 12.8969 15.728C12.8969 14.984 11.9729 14.564 10.4969 14.564C9.03294 14.564 8.10894 14.984 8.10894 15.728C8.10894 16.484 9.03294 16.904 10.4969 16.904ZM10.4969 13.592C12.6929 13.592 14.1209 14.408 14.1209 15.728C14.1209 17.06 12.6929 17.876 10.4969 17.876C8.30094 17.876 6.88494 17.06 6.88494 15.728C6.88494 14.408 8.30094 13.592 10.4969 13.592ZM17.624 9.26V14.12H19.496V9.26H17.624ZM16.472 15.104V8.276H20.648V15.104H16.472ZM24.188 7.088H25.364V17.912H24.188V12.32H22.952V17.408H21.788V7.292H22.952V11.312H24.188V7.088Z" fill="#FF6D6D"/>
</svg>
