<svg width="31" height="25" viewBox="0 0 31 25" fill="none" xmlns="http://www.w3.org/2000/svg">
<rect width="31" height="25" rx="4" fill="#F4F4F4"/>
<path d="M14.0009 7.076V12.584H12.7649V7.076H14.0009ZM6.47694 9.884C6.47694 10.748 7.17294 11.312 8.10894 11.312C9.05694 11.312 9.76494 10.748 9.76494 9.884C9.76494 9.02 9.05694 8.456 8.10894 8.456C7.17294 8.456 6.47694 9.02 6.47694 9.884ZM10.9649 9.884C10.9649 11.312 9.75294 12.32 8.10894 12.32C6.47694 12.32 5.27694 11.312 5.27694 9.884C5.27694 8.456 6.47694 7.436 8.10894 7.436C9.75294 7.436 10.9649 8.456 10.9649 9.884ZM8.13294 16.82H14.3249V17.792H6.92094V14.948H12.7769V14.048H6.89694V13.076H14.0009V15.86H8.13294V16.82ZM20.372 12.308V10.52H17.72V12.308H20.372ZM21.596 7.868V13.304H16.484V7.868H17.72V9.56H20.372V7.868H21.596ZM18.956 14.288V16.712H25.004V17.72H17.708V14.288H18.956ZM24.572 10.28H26.108V11.3H24.572V15.056H23.336V7.1H24.572V10.28Z" fill="#8993A2"/>
</svg>
